<svg data-v-423bf9ae="" xmlns="http://www.w3.org/2000/svg" viewBox="0 0 321.8223535755111 163" class="iconAbove"><!----><!----><!----><g data-v-423bf9ae="" id="470e1aaa-c48b-4a07-8585-7abed78d133c" fill="#000000" transform="matrix(4.5558086296446,0,0,4.5558086296446,-3.826877719065635,91.9749456297024)"><path d="M2.89 12.67L0.84 12.67L0.84 2.42L1.52 2.42L5.97 7.48L10.42 2.42L11.10 2.42L11.10 12.67L9.05 12.67L9.04 6.73L5.97 10.14L2.89 6.73L2.89 12.67ZM16.08 12.74L16.08 12.74Q14.59 12.74 13.59 11.74L13.59 11.74L13.59 11.74Q12.59 10.74 12.59 9.26L12.59 9.26L12.59 9.26Q12.59 7.77 13.59 6.77L13.59 6.77L13.59 6.77Q14.59 5.77 16.08 5.77L16.08 5.77L16.08 5.77Q17.57 5.77 18.57 6.77L18.57 6.77L18.57 6.77Q19.56 7.77 19.56 9.26L19.56 9.26L19.56 9.26Q19.56 10.75 18.57 11.74L18.57 11.74L18.57 11.74Q17.57 12.74 16.08 12.74L16.08 12.74ZM16.07 11.09L16.07 11.09L16.07 11.09Q16.85 11.09 17.34 10.56L17.34 10.56L17.34 10.56Q17.82 10.04 17.82 9.26L17.82 9.26L17.82 9.26Q17.82 8.48 17.34 7.96L17.34 7.96L17.34 7.96Q16.85 7.43 16.06 7.43L16.06 7.43L16.06 7.43Q15.29 7.43 14.81 7.96L14.81 7.96L14.81 7.96Q14.32 8.48 14.32 9.26L14.32 9.26L14.32 9.26Q14.32 10.04 14.81 10.56L14.81 10.56L14.81 10.56Q15.29 11.09 16.07 11.09ZM22.78 8.33L22.78 8.33L22.78 12.67L20.86 12.67L20.86 6.04L22.78 5.83L22.78 6.45L22.78 6.45Q23.47 5.84 24.42 5.84L24.42 5.84L24.42 5.84Q25.72 5.84 26.40 6.62L26.40 6.62L26.40 6.62Q27.08 7.41 27.08 8.44L27.08 8.44L27.08 12.67L25.17 12.67L25.17 8.91L25.17 8.91Q25.17 8.23 24.83 7.85L24.83 7.85L24.83 7.85Q24.49 7.48 23.80 7.46L23.80 7.46L23.80 7.46Q23.20 7.50 22.78 8.33ZM28.33 9.26L28.33 9.26L28.33 9.26Q28.33 7.75 29.29 6.79L29.29 6.79L29.29 6.79Q30.24 5.84 31.75 5.84L31.75 5.84L31.75 5.84Q33.25 5.84 34.14 6.79L34.14 6.79L34.14 6.79Q35.03 7.75 35.03 9.26L35.03 9.26L35.03 9.94L30.31 9.94L30.31 9.94Q30.38 10.49 30.79 10.79L30.79 10.79L30.79 10.79Q31.20 11.10 31.75 11.10L31.75 11.10L31.75 11.10Q32.70 11.10 33.46 10.55L33.46 10.55L34.55 11.65L34.55 11.65Q33.80 12.67 31.75 12.67L31.75 12.67L31.75 12.67Q30.24 12.67 29.29 11.72L29.29 11.72L29.29 11.72Q28.33 10.76 28.33 9.26ZM33.11 8.57L33.11 8.57Q33.11 8.03 32.70 7.72L32.70 7.72L32.70 7.72Q32.29 7.41 31.75 7.41L31.75 7.41L31.75 7.41Q31.20 7.41 30.79 7.72L30.79 7.72L30.79 7.72Q30.38 8.03 30.38 8.57L30.38 8.57L33.11 8.57ZM40.77 10.31L40.77 10.31L40.77 5.84L42.68 5.84L42.68 12.13L42.68 12.13Q42.68 13.56 41.79 14.53L41.79 14.53L41.79 14.53Q40.91 15.49 39.68 15.54L39.68 15.54L39.27 15.59L39.27 15.59Q37.83 15.54 36.67 14.45L36.67 14.45L37.56 13.43L37.56 13.43Q38.38 14.04 39.11 14.11L39.11 14.11L39.11 14.11Q40.00 14.11 40.38 13.67L40.38 13.67L40.38 13.67Q40.77 13.22 40.77 12.40L40.77 12.40L40.77 12.05L40.77 12.05Q40.04 12.67 39.09 12.67L39.09 12.67L39.09 12.67Q37.80 12.67 37.11 11.89L37.11 11.89L37.11 11.89Q36.43 11.10 36.43 10.08L36.43 10.08L36.43 5.84L38.34 5.84L38.34 9.60L38.34 9.60Q38.34 10.28 38.68 10.66L38.68 10.66L38.68 10.66Q39.03 11.03 39.72 11.05L39.72 11.05L39.72 11.05Q40.32 11.01 40.77 10.31ZM46.45 12.67L44.40 12.67L44.40 2.42L48.87 2.42L48.87 2.42Q52.46 2.42 52.46 5.37L52.46 5.37L52.46 5.37Q52.46 8.44 48.88 8.44L48.88 8.44L46.45 8.44L46.45 12.67ZM46.45 4.34L46.45 6.52L49.32 6.52L49.32 6.52Q50.56 6.50 50.59 5.39L50.59 5.39L50.59 5.39Q50.56 4.38 49.34 4.34L49.34 4.34L46.45 4.34ZM56.90 12.74L56.90 12.74Q55.41 12.74 54.41 11.74L54.41 11.74L54.41 11.74Q53.42 10.74 53.42 9.26L53.42 9.26L53.42 9.26Q53.42 7.77 54.41 6.77L54.41 6.77L54.41 6.77Q55.41 5.77 56.90 5.77L56.90 5.77L56.90 5.77Q58.39 5.77 59.39 6.77L59.39 6.77L59.39 6.77Q60.39 7.77 60.39 9.26L60.39 9.26L60.39 9.26Q60.39 10.75 59.39 11.74L59.39 11.74L59.39 11.74Q58.39 12.74 56.90 12.74L56.90 12.74ZM56.90 11.09L56.90 11.09L56.90 11.09Q57.67 11.09 58.16 10.56L58.16 10.56L58.16 10.56Q58.65 10.04 58.65 9.26L58.65 9.26L58.65 9.26Q58.65 8.48 58.16 7.96L58.16 7.96L58.16 7.96Q57.67 7.43 56.89 7.43L56.89 7.43L56.89 7.43Q56.12 7.43 55.63 7.96L55.63 7.96L55.63 7.96Q55.15 8.48 55.15 9.26L55.15 9.26L55.15 9.26Q55.15 10.04 55.63 10.56L55.63 10.56L55.63 10.56Q56.12 11.09 56.90 11.09ZM64.78 12.74L64.78 12.74Q63.29 12.74 62.29 11.74L62.29 11.74L62.29 11.74Q61.29 10.74 61.29 9.26L61.29 9.26L61.29 9.26Q61.29 7.77 62.29 6.77L62.29 6.77L62.29 6.77Q63.29 5.77 64.78 5.77L64.78 5.77L64.78 5.77Q66.27 5.77 67.27 6.77L67.27 6.77L67.27 6.77Q68.26 7.77 68.26 9.26L68.26 9.26L68.26 9.26Q68.26 10.75 67.27 11.74L67.27 11.74L67.27 11.74Q66.27 12.74 64.78 12.74L64.78 12.74ZM64.77 11.09L64.77 11.09L64.77 11.09Q65.55 11.09 66.04 10.56L66.04 10.56L66.04 10.56Q66.52 10.04 66.52 9.26L66.52 9.26L66.52 9.26Q66.52 8.48 66.04 7.96L66.04 7.96L66.04 7.96Q65.55 7.43 64.76 7.43L64.76 7.43L64.76 7.43Q63.99 7.43 63.51 7.96L63.51 7.96L63.51 7.96Q63.02 8.48 63.02 9.26L63.02 9.26L63.02 9.26Q63.02 10.04 63.51 10.56L63.51 10.56L63.51 10.56Q63.99 11.09 64.77 11.09ZM71.48 12.67L69.56 12.67L69.56 2.42L71.48 2.42L71.48 12.67Z"></path></g><defs data-v-423bf9ae=""><linearGradient data-v-423bf9ae="" gradientTransform="rotate(25)" id="fd2623da-7532-40a1-960e-3f508cf41d38" x1="0%" y1="0%" x2="100%" y2="0%"><stop data-v-423bf9ae="" offset="0%" style="stop-color: rgb(2, 24, 2); stop-opacity: 1;"></stop><stop data-v-423bf9ae="" offset="100%" style="stop-color: rgb(96, 219, 204); stop-opacity: 1;"></stop></linearGradient></defs><g data-v-423bf9ae="" id="1994a586-5a83-40fc-9b6f-ce2b239ea8be" transform="matrix(1.9524050297706481,0,0,1.9524050297706481,62.48677421630441,-45.752961029624174)" stroke="none" fill="url(#fd2623da-7532-40a1-960e-3f508cf41d38)"><path d="M49.701 40.913a10.246 10.246 0 0 0 1.557-.573c.487-.229.895-.498 1.215-.809.521-.505.609-.881.254-1.126-.353-.246-1.159-.463-2.424-.652l-3.882 3.685a17.53 17.53 0 0 0 1.587-.164 13.571 13.571 0 0 0 1.693-.361zM51.33 34.744l3.326-3.112a10.62 10.62 0 0 0-2.728.456 8.08 8.08 0 0 0-1.296.513 4.43 4.43 0 0 0-1.027.698c-.451.416-.539.73-.265.948.281.215.943.382 1.99.497z"></path><path d="M75.028 49.957c.348 0 .679-.138.925-.382l23.665-23.077a1.304 1.304 0 1 0-.923-2.229h-72.69c-.315 0-.619.113-.857.32L.589 47.666a1.305 1.305 0 0 0 .858 2.291h73.581zM37.502 38.996l5.334-.042c-.807.717-1.043 1.281-.714 1.693.333.415 1.015.679 2.053.792l4.264-3.989a6.866 6.866 0 0 0-.415-.079 12.446 12.446 0 0 0-.605-.078c-.79-.114-1.547-.25-2.264-.408-.716-.157-1.276-.37-1.679-.642-.407-.268-.591-.607-.554-1.016.04-.408.403-.923 1.093-1.543.704-.633 1.565-1.198 2.589-1.696 1.021-.5 2.109-.927 3.267-1.283a29.396 29.396 0 0 1 3.591-.864 33.531 33.531 0 0 1 3.584-.445l1.565-1.466 2.194-.087-1.561 1.475c1.043.026 1.957.115 2.739.268.786.156 1.376.387 1.775.694.403.309.583.705.548 1.189-.035.485-.361 1.066-.984 1.747l-5.31.125c.517-.517.663-.948.445-1.292-.221-.343-.749-.502-1.595-.478l-3.596 3.398c.26.032.521.064.794.096.272.033.551.073.847.118 1.581.224 2.668.521 3.273.887.604.37.929.762.977 1.174.049.414-.093.83-.432 1.25-.342.42-.678.793-1.01 1.123-.295.288-.801.653-1.527 1.093-.719.44-1.656.871-2.803 1.29-1.15.416-2.499.786-4.046 1.105-1.551.318-3.312.505-5.276.561l-1.727 1.631-2.263-.021 1.733-1.622c-2.734-.116-4.481-.559-5.24-1.328-.754-.761-.441-1.868.936-3.33z"></path><path d="M76.558 54.748H.45v5.226h77.191c.69 0 1.355-.275 1.846-.766L100 38.884v-7.58L76.558 54.748z"></path><path d="M.45 64.761v5.226h79.804c.691 0 1.356-.276 1.846-.766L100 51.398v-7.467l-20.826 20.83H.45z"></path></g><!----></svg>